<?xml version="1.0" encoding="utf-8"?>
<!-- Generator: Adobe Illustrator 24.0.1, SVG Export Plug-In . SVG Version: 6.00 Build 0)  -->
<svg version="1.1" id="Layer_1" xmlns="http://www.w3.org/2000/svg" xmlns:xlink="http://www.w3.org/1999/xlink" x="0px" y="0px"
	 viewBox="0 0 286 73" style="enable-background:new 0 0 286 73;" xml:space="preserve">
<style type="text/css">
	.st0{enable-background:new    ;}
	.st1{fill:#FFFFFF;}
	.st2{fill:#CC0000;}
</style>
<title>Asset 5</title>
<g class="st0">
	<path class="st1" d="M79.3,23.3c0-4.1,1.9-8.5,7.1-8.5s7.1,4.4,7.1,8.5s-1.9,8.5-7.1,8.5S79.3,27.4,79.3,23.3z M91.1,23.3
		c0-2.9-1.2-6.1-4.6-6.1s-4.6,3.5-4.6,6.1c0,2.9,1.2,6.1,4.6,6.1S91.1,26,91.1,23.3z"/>
	<path class="st1" d="M97.7,15.1h6.6c4,0,5.4,2.6,5.4,5c0,2.3-1.5,5-5.4,5h-4.1v6.4h-2.4V15.1z M107.2,20.1c0-1.1-0.6-2.7-2.7-2.7
		h-4.3v5.3h4.3C106.5,22.8,107.2,21.4,107.2,20.1z"/>
	<path class="st1" d="M113,15.1h10.2v2.3h-7.7v4.5h5v2.3h-5v5h8.2v2.3H113V15.1z"/>
</g>
<g class="st0">
	<path class="st1" d="M127.8,15.1h6.9c4,0,5.3,2.4,5.3,4.9c0,1.9-1.1,4-3.6,4.6l3.4,6.9H137l-3.2-6.7h-3.6v6.7h-2.4V15.1z
		 M134.8,22.5c2,0,2.7-1.2,2.7-2.5c0-1.1-0.6-2.5-2.7-2.5h-4.5v5H134.8z"/>
</g>
<g class="st0">
	<path class="st1" d="M153.1,27.7h-6.6l-1.3,3.8h-2.5l5.9-16.4h2.5l5.9,16.4h-2.5L153.1,27.7z M150.3,20c-0.2-0.5-0.4-1.3-0.6-1.9
		c-0.1,0.6-0.4,1.3-0.6,1.9l-2,5.6h5.1L150.3,20z"/>
</g>
<g class="st0">
	<path class="st1" d="M164.4,31.5H162V17.4h-4.6v-2.3h11.7v2.3h-4.6V31.5z"/>
</g>
<g class="st0">
	<path class="st1" d="M171.3,23.3c0-4.1,1.9-8.5,7.1-8.5s7.1,4.4,7.1,8.5s-1.9,8.5-7.1,8.5S171.3,27.4,171.3,23.3z M183.1,23.3
		c0-2.9-1.2-6.1-4.6-6.1s-4.6,3.5-4.6,6.1c0,2.9,1.2,6.1,4.6,6.1S183.1,26,183.1,23.3z"/>
	<path class="st1" d="M189.7,15.1h6.9c4,0,5.3,2.4,5.3,4.9c0,1.9-1.1,4-3.6,4.6l3.4,6.9H199l-3.2-6.7h-3.6v6.7h-2.4V15.1z
		 M196.7,22.5c2,0,2.7-1.2,2.7-2.5c0-1.1-0.6-2.5-2.7-2.5h-4.5v5H196.7z"/>
</g>
<g class="st0">
	<path class="st1" d="M80.5,39.3h14.1v3.5H84.2v5.3h6.6v3.5h-6.6v9.5h-3.8V39.3z"/>
</g>
<g class="st0">
	<path class="st1" d="M98.8,39.3h9.7c5.4,0,7.2,3.2,7.2,6.7c0,2.5-1.4,5.3-4.5,6.3l4.4,9h-4.2l-4.2-8.6h-4.6v8.6h-3.8V39.3z
		 M108.5,49.1c2.4,0,3.3-1.5,3.3-3.1c0-1.5-0.7-3.1-3.3-3.1h-6v6.2H108.5z"/>
</g>
<g class="st0">
	<path class="st1" d="M132.9,56.4h-8.7l-1.7,4.8h-4l8.2-21.9h3.7l8.1,21.9h-3.9L132.9,56.4z M129.3,46.5c-0.2-0.6-0.6-1.6-0.7-2.2
		c-0.2,0.7-0.5,1.6-0.7,2.2l-2.4,6.6h6.3L129.3,46.5z"/>
</g>
<g class="st0">
	<path class="st1" d="M158.6,61.2V49.6c0-0.8,0.1-2,0.1-2.6c-0.3,0.8-0.7,1.9-1,2.7l-5.3,11.9l-5.3-12c-0.3-0.8-0.8-1.8-1-2.6
		c0.1,0.6,0.1,1.8,0.1,2.6v11.6h-3.8V39.3h3.8l5.6,12.8c0.2,0.5,0.4,1.1,0.6,1.6c0.2-0.5,0.4-1.1,0.6-1.6l5.7-12.8h3.7v21.9H158.6z"
		/>
</g>
<g class="st0">
	<path class="st1" d="M168.3,39.3h14.3v3.5H172v5.3h6.5v3.5H172v6h11.2v3.5h-14.9V39.3z"/>
</g>
<g class="st0">
	<path class="st1" d="M186.5,39.3h3.8l2.6,12.9c0.2,1,0.3,1.6,0.4,2.1c0.1-0.5,0.2-1.1,0.4-2.1l3.2-12.9h3.2l3.3,12.8
		c0.3,1,0.4,1.6,0.4,2.1c0.1-0.5,0.2-1.1,0.4-2.1l2.6-12.9h3.8l-4.7,21.9h-3.4l-3.5-13.5c-0.3-0.9-0.4-1.5-0.4-2
		c-0.1,0.6-0.2,1.2-0.4,2l-3.5,13.6h-3.4L186.5,39.3z"/>
</g>
<g class="st0">
	<path class="st1" d="M213.5,50.3c0-5.4,2.6-11.3,9.6-11.3c7.1,0,9.6,5.9,9.6,11.3c0,5.4-2.5,11.3-9.6,11.3
		C216,61.6,213.5,55.7,213.5,50.3z M228.8,50.3c0-3.6-1.5-7.7-5.7-7.7s-5.7,4.3-5.7,7.7c0,3.6,1.5,7.7,5.7,7.7
		C227.3,58,228.8,53.6,228.8,50.3z"/>
	<path class="st1" d="M237.8,39.3h9.7c5.4,0,7.2,3.2,7.2,6.7c0,2.5-1.4,5.3-4.5,6.3l4.4,9h-4.2l-4.2-8.6h-4.6v8.6h-3.8V39.3z
		 M247.6,49.1c2.4,0,3.3-1.5,3.3-3.1c0-1.5-0.7-3.1-3.3-3.1h-6v6.2H247.6z"/>
	<path class="st1" d="M267.5,50.2l-4,4.8v6.1h-3.8V39.3h3.8v10.5l8.3-10.5h4.4l-6.3,7.8l7.8,14.1h-4.4L267.5,50.2z"/>
</g>
<g>
	<circle class="st2" cx="34.8" cy="36.7" r="34.4"/>
	<path class="st1" d="M42.4,7.3l-28.1,36l20.4,0.2c0.7,0,1.2,0.7,1,1.4l-5.4,20.5c-0.2,0.6,0.6,0.9,1,0.5l23.8-31.4
		c0.2-0.3,0-0.8-0.4-0.8H35.4c-0.9,0-1.5-0.9-1.2-1.7l8.4-22.8L42.4,7.3z"/>
</g>
</svg>
